<svg width="31" height="31" viewBox="0 0 31 31" fill="none" xmlns="http://www.w3.org/2000/svg">
<path fill-rule="evenodd" clip-rule="evenodd" d="M18.083 9.04172C18.083 7.61701 16.9243 6.45839 15.4996 6.45839C14.0749 6.45839 12.9163 7.61701 12.9163 9.04172C12.9163 10.4664 14.0749 11.6251 15.4996 11.6251C16.9243 11.6251 18.083 10.4664 18.083 9.04172ZM20.6663 9.04167C20.6663 11.8911 18.3491 14.2083 15.4997 14.2083C12.6503 14.2083 10.333 11.8911 10.333 9.04167C10.333 6.19225 12.6503 3.875 15.4997 3.875C18.3491 3.875 20.6663 6.19225 20.6663 9.04167ZM6.45801 25.8333C6.45801 20.8474 10.5151 16.7916 15.4997 16.7916C20.4842 16.7916 24.5413 20.8474 24.5413 25.8333C24.5413 26.5463 23.964 27.1249 23.2497 27.1249C22.5354 27.1249 21.958 26.5463 21.958 25.8333C21.958 22.2722 19.0608 19.3749 15.4997 19.3749C11.9386 19.3749 9.04134 22.2722 9.04134 25.8333C9.04134 26.5463 8.46397 27.1249 7.74967 27.1249C7.03538 27.1249 6.45801 26.5463 6.45801 25.8333Z" fill="black"/>
<mask id="mask0_180_1215" style="mask-type:alpha" maskUnits="userSpaceOnUse" x="6" y="3" width="19" height="25">
<path fill-rule="evenodd" clip-rule="evenodd" d="M18.083 9.04172C18.083 7.61701 16.9243 6.45839 15.4996 6.45839C14.0749 6.45839 12.9163 7.61701 12.9163 9.04172C12.9163 10.4664 14.0749 11.6251 15.4996 11.6251C16.9243 11.6251 18.083 10.4664 18.083 9.04172ZM20.6663 9.04167C20.6663 11.8911 18.3491 14.2083 15.4997 14.2083C12.6503 14.2083 10.333 11.8911 10.333 9.04167C10.333 6.19225 12.6503 3.875 15.4997 3.875C18.3491 3.875 20.6663 6.19225 20.6663 9.04167ZM6.45801 25.8333C6.45801 20.8474 10.5151 16.7916 15.4997 16.7916C20.4842 16.7916 24.5413 20.8474 24.5413 25.8333C24.5413 26.5463 23.964 27.1249 23.2497 27.1249C22.5354 27.1249 21.958 26.5463 21.958 25.8333C21.958 22.2722 19.0608 19.3749 15.4997 19.3749C11.9386 19.3749 9.04134 22.2722 9.04134 25.8333C9.04134 26.5463 8.46397 27.1249 7.74967 27.1249C7.03538 27.1249 6.45801 26.5463 6.45801 25.8333Z" fill="white"/>
</mask>
<g mask="url(#mask0_180_1215)">
<rect width="31" height="31" fill="#865342"/>
</g>
</svg>
