<svg width="17" height="17" viewBox="0 0 17 17" fill="none" xmlns="http://www.w3.org/2000/svg">
<path fill-rule="evenodd" clip-rule="evenodd" d="M4.67484 2.83341C3.65909 2.83341 2.83317 3.65933 2.83317 4.67508C2.83317 9.90825 7.09096 14.1667 12.3248 14.1667C13.3399 14.1667 14.1665 13.3408 14.1665 12.3251C14.1665 12.2465 14.1615 12.1692 14.1516 12.0927L10.8791 11.3419C10.814 11.4666 10.7424 11.6019 10.6773 11.728C10.3543 12.3442 10.1205 12.7919 9.52409 12.5517C7.18234 11.7301 5.27055 9.81758 4.43825 7.4475C4.18538 6.89146 4.66705 6.63929 5.27763 6.32054C5.40159 6.25537 5.53546 6.18525 5.658 6.1215L4.90717 2.84829C4.82855 2.83837 4.75205 2.83341 4.67484 2.83341ZM12.3248 15.5834C6.30967 15.5834 1.4165 10.6902 1.4165 4.67508C1.4165 2.87804 2.8778 1.41675 4.67484 1.41675C4.859 1.41675 5.04105 1.43233 5.21742 1.46279C5.38955 1.49041 5.56238 1.53433 5.73096 1.59241C5.96117 1.67246 6.13471 1.86583 6.18925 2.10383L7.15896 6.32833C7.2128 6.56067 7.1455 6.80433 6.97975 6.97716C6.88342 7.07775 6.8813 7.07987 6.00296 7.53958C6.71413 9.0795 7.95017 10.3113 9.45892 10.9984C9.91934 10.1193 9.92217 10.1165 10.0228 10.0202C10.1956 9.85441 10.4407 9.78996 10.6716 9.84096L14.8968 10.8107C15.1341 10.8652 15.3275 11.038 15.4068 11.2682C15.4649 11.4354 15.5088 11.6082 15.5378 11.786C15.5676 11.961 15.5832 12.1423 15.5832 12.3251C15.5832 14.1221 14.1212 15.5834 12.3248 15.5834Z" fill="black"/>
<mask id="mask0_180_1245" style="mask-type:alpha" maskUnits="userSpaceOnUse" x="1" y="1" width="15" height="15">
<path fill-rule="evenodd" clip-rule="evenodd" d="M4.67484 2.83341C3.65909 2.83341 2.83317 3.65933 2.83317 4.67508C2.83317 9.90825 7.09096 14.1667 12.3248 14.1667C13.3399 14.1667 14.1665 13.3408 14.1665 12.3251C14.1665 12.2465 14.1615 12.1692 14.1516 12.0927L10.8791 11.3419C10.814 11.4666 10.7424 11.6019 10.6773 11.728C10.3543 12.3442 10.1205 12.7919 9.52409 12.5517C7.18234 11.7301 5.27055 9.81758 4.43825 7.4475C4.18538 6.89146 4.66705 6.63929 5.27763 6.32054C5.40159 6.25537 5.53546 6.18525 5.658 6.1215L4.90717 2.84829C4.82855 2.83837 4.75205 2.83341 4.67484 2.83341ZM12.3248 15.5834C6.30967 15.5834 1.4165 10.6902 1.4165 4.67508C1.4165 2.87804 2.8778 1.41675 4.67484 1.41675C4.859 1.41675 5.04105 1.43233 5.21742 1.46279C5.38955 1.49041 5.56238 1.53433 5.73096 1.59241C5.96117 1.67246 6.13471 1.86583 6.18925 2.10383L7.15896 6.32833C7.2128 6.56067 7.1455 6.80433 6.97975 6.97716C6.88342 7.07775 6.8813 7.07987 6.00296 7.53958C6.71413 9.0795 7.95017 10.3113 9.45892 10.9984C9.91934 10.1193 9.92217 10.1165 10.0228 10.0202C10.1956 9.85441 10.4407 9.78996 10.6716 9.84096L14.8968 10.8107C15.1341 10.8652 15.3275 11.038 15.4068 11.2682C15.4649 11.4354 15.5088 11.6082 15.5378 11.786C15.5676 11.961 15.5832 12.1423 15.5832 12.3251C15.5832 14.1221 14.1212 15.5834 12.3248 15.5834Z" fill="white"/>
</mask>
<g mask="url(#mask0_180_1245)">
<rect width="17" height="17" fill="#865342"/>
</g>
</svg>
